PathFileType	4	(X/Y/Z)	C:/Users/beibeiliu/ov580/test_trc/User1\sequence.14_training_dense_right.trc
DataRate	CameraRate	NumFrames	NumMarkers	Units	OrigDataRate	OrigDataStartFrame	OrigNumFrames
120	120	18	19	mm	120	34	267
Frame#	Time	ThumbCMC			ThumbMCP			ThumbIP			ThumbTip			IndexMCP			IndexPIP			IndexTip			MiddleMCP			MiddlePIP			MiddleTip			RingMCP			RingPIP			RingTip			PinkyMCP			PinkyPIP			PinkyTip			BackHand1			BackHand2			BackHand3	
		X0	Y0	Z0	X1	Y1	Z1	X2	Y2	Z2	X3	Y3	Z3	X4	Y4	Z4	X5	Y5	Z5	X6	Y6	Z6	X7	Y7	Z7	X8	Y8	Z8	X9	Y9	Z9	X10	Y10	Z10	X11	Y11	Z11	X12	Y12	Z12	X13	Y13	Z13	X14	Y14	Z14	X15	Y15	Z15	X16	Y16	Z16	X17	Y17	Z17	X18	Y18	Z18	
33	0.275	164.619	130.416	58.1152	144.426	145.978	30.363	136.401	152.414	3.42268	126.576	155.342	-23.0946	193.569	112.54	-22.8917	180.277	113.202	-49.6999	151.92	119.632	-62.1022	186.522	81.6476	-25.5165	175.441	89.1562	-59.5591	146.516	103.611	-72.6441	175.084	63.2564	-25.8388	164.045	67.3228	-54.3963	139.605	78.6157	-65.736	154.183	48.9752	-8.86156	146.364	47.3911	-32.0911	134.012	58.8252	-59.0329	178.604	63.3847	36.866	174.122	62.4922	66.9546	189.415	96.9535	55.4236	
34	0.283333	166.079	130.12	55.712	146.154	148.525	28.2588	137.886	152.449	6.52709	126.185	161.379	-19.7832	192.987	107.684	-19.8422	185.964	112.69	-53.0009	163.789	116.602	-68.6412	191.304	84.5664	-29.1754	180.668	85.9123	-58.8916	150.279	99.2696	-78.3358	176.523	65.1035	-23.2971	167.059	65.2987	-52.2799	143.448	80.7502	-71.8151	153.053	49.745	-8.08409	144.707	46.6466	-31.6862	137.265	56.7671	-56.8194	174.199	63.6682	37.3717	171.909	63.4692	69.7936	189.674	96.026	51.8015	
35	0.291667	167.127	131.168	58.7507	148.216	149.938	26.8276	139.328	159.164	5.03661	128.56	160.961	-17.2449	198.038	111.671	-22.8159	188.884	108.735	-48.9014	172.555	116.245	-71.8039	192.212	81.9865	-29.895	182.898	83.9323	-60.8294	156.176	93.0685	-81.6374	175.314	62.9154	-21.6947	169.138	67.9308	-55.9388	144.686	77.2322	-74.4269	154.378	50.4503	-10.2501	148.447	48.4686	-29.3226	138.244	56.2261	-56.7583	178.133	67.115	36.5783	172.368	63.8508	71.3109	190.232	93.8018	52.2399	
36	0.3	169.239	132.304	54.6515	148.542	148.175	29.3699	141.628	157.831	-0.819727	130.022	162.263	-19.7421	195.876	108.695	-21.991	190.156	112.089	-50.7252	168.581	115.2	-70.4901	193.613	85.4082	-29.4446	183.962	84.6828	-59.244	159.692	97.9396	-84.8532	176.869	65.5034	-21.4787	168.626	68.1039	-56.0285	147.722	80.1239	-73.821	152.895	51.2257	-5.70575	146.779	48.6355	-35.2594	143.438	57.0013	-55.7831	175.854	68.5025	35.9028	175.022	66.0078	66.1813	190.335	95.5553	54.7132	
37	0.308333	167.006	131.298	58.6389	148.289	148.751	28.3098	141.767	155.086	-3.20336	130.975	156.689	-23.6282	193.546	110.693	-20.6103	182.94	111.025	-49.403	161.044	124.066	-68.0111	193.102	83.6855	-28.2123	182.774	84.348	-59.6166	157.498	97.3489	-82.3873	178.301	65.1103	-20.4702	169.909	69.223	-55.6632	151.7	81.6654	-72.0492	153.541	51.4031	-7.63961	148.914	51.3145	-34.4922	143.693	62.948	-58.3959	176.938	66.6985	38.0981	174.175	62.6636	66.8854	191.97	96.0567	50.346	
38	0.316667	167.443	133.196	59.6612	148.771	146.852	27.0971	142.958	150.46	-3.96542	131.424	150.926	-23.4046	190.244	112.62	-24.4228	175.064	118.157	-49.8081	146.596	130.45	-57.7968	191.856	83.4519	-26.1242	184.838	89.5933	-58.0976	158.271	104.085	-80.9557	180.311	68.1188	-22.9377	172.474	67.7931	-51.6112	152.453	83.5998	-70.4459	156.183	54.3471	-4.76	151.591	51.5457	-28.8267	146.644	63.9167	-53.9666	176.397	69.3558	38.9169	175.717	67.5762	68.4603	193.461	96.3476	52.9988	
39	0.325	168.258	137.265	58.4274	150.901	145.228	21.5338	144.316	143.92	-5.34268	132.25	144.278	-25.2172	189.6	115.352	-20.0896	171.244	120.454	-47.3264	141.177	135.19	-50.9332	193.385	86.7861	-29.0214	179.825	89.903	-60.7803	151.648	103.57	-78.0795	178.6	65.3389	-23.5534	171.323	70.3815	-53.1822	148.838	85.1652	-69.9523	158.456	56.5626	-5.96587	151.85	53.4667	-31.6807	143.429	65.9831	-55.9927	176.002	66.669	38.2551	172.63	65.8334	71.7997	194.291	98.2611	53.1456	
40	0.333333	170.434	135.896	54.5708	150.825	145.768	22.6361	143.127	145.711	-5.64363	133.224	139.951	-27.9076	188.052	114.164	-23.158	164.59	118.589	-45.9388	133.545	135.838	-45.9492	189.104	82.049	-28.1116	179.186	88.9813	-58.1133	149.621	103.669	-77.4614	175.242	63.7967	-19.8465	168.786	69.168	-52.978	146.426	80.8658	-69.1662	153.791	51.9564	-6.04447	148.087	52.1939	-32.3085	139.875	63.905	-55.6465	176.291	68.3562	37.3862	174.036	65.686	70.8873	190.361	95.5782	52.7185	
41	0.341667	170.449	133.678	54.688	151.243	148.336	23.5741	144.291	143.005	-6.75865	131.777	139.275	-30.7034	187.453	114.138	-24.8522	163.065	119.799	-46.6987	136.751	135.296	-46.8338	189.198	82.7851	-31.8984	174.382	86.2276	-60.296	144.824	102.09	-76.6146	174.549	62.6726	-23.7844	168.376	67.8406	-52.0253	141.374	82.395	-69.403	151.605	51.9242	-4.15688	146.907	55.9264	-33.7496	137.574	63.6312	-54.4063	175.552	65.6518	39.5772	171.429	66.4812	67.7512	191.955	97.7541	53.2336	
42	0.35	171.36	131.846	53.4553	151.807	146.111	23.6635	143.88	144.576	-7.98467	131.732	140.613	-31.7747	182.811	110.085	-26.9266	162.385	116.794	-45.1564	135.23	132.918	-45.7332	186.386	79.1185	-31.9318	174.455	83.6794	-58.6684	146.312	101.322	-76.5605	174.573	65.2445	-22.0438	164.836	67.3412	-53.751	145.502	82.0944	-68.5484	150.082	50.9187	-4.90557	145.57	51.1935	-30.2365	136.531	64.5375	-55.7472	175.046	65.4672	39.4637	171.194	64.6543	67.8829	192.18	96.1486	49.6461	
43	0.358333	171.944	134.446	54.1062	152.323	144.257	23.4061	143.817	144.106	-4.71409	132.416	140.836	-26.3363	184.431	107.863	-22.3663	161.237	119.786	-48.2266	136.267	133.437	-47.0743	185.774	80.7693	-26.7199	175.18	87.3627	-59.9471	148.581	101.639	-75.9389	173.76	63.052	-20.0128	162.883	68.1133	-54.4602	140.467	78.8558	-67.6131	149.842	50.03	-6.10647	145.482	53.9498	-30.3423	135.221	64.6331	-53.8817	174.563	65.9455	40.0837	172.413	64.765	69.0611	189.577	92.9052	53.7158	
44	0.366667	171.423	129.233	51.696	153.156	143.422	24.3698	144.212	143.464	-3.75805	132.348	141.332	-27.1358	184.714	107.977	-27.4441	164.8	116.762	-47.05	133.477	130.977	-45.4285	185.354	79.8142	-29.7761	170.805	83.3092	-60.0376	145.201	100.829	-76.166	171.225	61.2896	-23.7745	161.173	66.5687	-54.8117	138.934	78.7451	-67.384	149.948	53.8517	-5.24811	141.367	52.8415	-31.1233	135.409	67.0942	-52.7702	175.361	62.8882	36.4377	169.278	64.7588	72.5209	190.879	93.8173	54.2267	
45	0.375	172.86	128.556	52.6629	155.654	143.617	21.2051	147.447	145.604	-6.82162	134.71	143.572	-30.3631	185.705	103.344	-22.8023	165.914	115.533	-47.1827	136.094	133.575	-46.1721	185.47	77.9983	-28.8365	173.803	82.6498	-58.3505	143.882	98.6406	-75.6777	170.492	61.6608	-18.9418	159.311	64.694	-53.5266	138.435	78.493	-68.5926	146.714	49.2228	-6.05874	142.256	52.5952	-27.2714	129.878	61.9176	-53.6548	173.861	64.9119	38.8168	169.039	60.7507	73.7175	193.471	93.6531	51.3435	
46	0.383333	176.526	130.246	52.6244	159.699	142.534	22.8706	151.011	145.515	-8.55081	139.406	143.943	-25.6841	188.028	104.029	-24.5468	165.439	110.632	-47.5108	136.23	131.606	-45.7284	182.817	74.3899	-28.0068	170.768	80.7903	-59.8535	143.455	97.4278	-75.1443	168.661	59.7276	-19.0114	157.225	63.3066	-52.9915	136.403	78.6161	-68.2866	143.153	47.002	-5.75634	134.207	50.9013	-31.121	129.693	65.4216	-51.3941	169.59	59.2231	35.3469	169.2	59.267	69.3278	191.486	87.6343	51.586	
47	0.391667	178.534	124.968	55.2002	164.755	144.932	22.2292	156.934	148.659	-5.07699	144.671	143.99	-27.1744	189.936	99.6741	-24.4221	165.909	104.955	-50.0369	144.727	128.008	-51.8518	179.307	68.7481	-30.0003	166.957	77.7739	-62.3998	142.892	98.7706	-77.732	164.486	56.2357	-19.0113	150.995	59.1945	-53.6178	134.676	76.1522	-67.6095	140.371	48.9319	-4.77894	134.972	53.2783	-28.7716	127.493	65.4876	-51.5273	168.8	56.8346	38.8895	169.116	60.6883	72.9767	191.807	86.0539	54.1381	
48	0.4	182.915	125.31	53.1585	169.919	145.461	24.0155	162.147	148.73	-6.28732	150.279	151.148	-24.6892	187.77	92.6216	-30.134	174.289	101.19	-52.5632	147.068	119.806	-56.3672	177.305	65.3629	-30.7547	167.794	73.6643	-61.3638	143.459	94.7719	-78.6764	163.749	54.6833	-21.2181	152.001	56.1182	-50.7832	128.864	76.4078	-69.2577	136.85	49.027	-2.74486	127.131	49.1358	-28.2723	123.747	65.3665	-50.6813	165.929	56.6684	39.7048	166.963	56.9146	69.7802	192.323	82.8881	51.599	
49	0.408333	185.565	120.676	51.0868	176.206	142.184	19.8084	169.353	150.873	-2.73496	157.439	152.969	-26.3933	188.275	89.1896	-26.6876	170.855	97.9838	-55.679	147.891	118.704	-62.3753	178.811	65.8871	-27.9454	161.827	69.4308	-63.1133	143.121	90.126	-78.6648	157.827	50.8037	-21.8882	151.055	56.1482	-51.8304	129.112	75.5339	-69.8516	136.407	50.6943	-2.5249	123.762	50.5679	-27.4759	120.741	63.9969	-50.4082	164.913	55.0799	36.6412	166.095	59.2602	68.5218	192.35	79.0787	50.8768	
50	0.416667	190.498	121.914	48.7526	181.418	144.554	22.4455	175.473	150.66	-1.91676	164.833	155.801	-27.6955	191.223	86.75	-29.7962	175.893	93.5339	-57.0556	153.543	111.835	-67.202	176.994	61.9966	-33.1012	166.261	67.4532	-60.941	140.019	85.3775	-79.2507	155.909	49.2529	-21.177	147.494	53.634	-50.9418	126.723	73.8978	-69.0951	133.13	50.4838	-3.9726	126.054	52.6188	-28.6244	113.745	64.1234	-49.812	166.277	55.838	33.5443	166.857	57.0389	67.5133	190.372	77.5511	50.6772	
